<?xml version="1.0" encoding="utf-8"?>
<!-- Generator: Adobe Illustrator 25.2.0, SVG Export Plug-In . SVG Version: 6.00 Build 0)  -->
<svg version="1.1" xmlns="http://www.w3.org/2000/svg" xmlns:xlink="http://www.w3.org/1999/xlink" x="0px" y="0px"
	 viewBox="0 0 1366 761" style="enable-background:new 0 0 1366 761;" xml:space="preserve">
<g id="Lote8">
	<path class="st1" d="M409.95,147.73c30.05-1.57,59.2-3.09,89.39-4.66c-1.21,65.35-2.4,129.78-3.6,194.8c-29.61,0-58.98,0-89.23,0
		C407.66,274.81,408.79,211.83,409.95,147.73z"/>
</g>
<g id="Lote_9">
	<path class="st2" d="M407.82,394.36c28.85,0,57.35,0,87.03,0c-0.74,67.2-1.47,134.03-2.21,201.26c-30.23,0-59.5,0-90.2,0
		C404.23,528.79,406.02,462.01,407.82,394.36z"/>
</g>
<g id="Lote13">
	<path class="st3" d="M660.42,231.23c-53.11,0-105.09,0-157.81,0c0-3.09-0.03-5.42,0-7.75c0.37-24.43,0.89-48.86,1.02-73.28
		c0.03-5.81,1.8-7.66,7.85-8c43.05-2.4,86.07-5.24,129.1-8.01c7.63-0.49,19.7,8.29,19.75,15.33
		C660.55,176.59,660.42,203.66,660.42,231.23z"/>
</g>
<g id="Lote_15">
	<path class="st1" d="M731.73,235.54c55.65,0,109.62,0,164.23,0c0,34.37,0,68.28,0,103.16c-12.85,0-25.12,0.02-37.4,0
		c-35.39-0.09-70.77-0.19-106.16-0.29c-8.21-0.02-20.53-11.19-20.59-19.42C731.6,291.41,731.73,263.84,731.73,235.54z"/>
</g>
<g id="Lote_16">
	<path class="st2" d="M728.47,495.24c0-15.69-0.01-30.63,0-45.58c0.01-12.82-0.03-25.64,0.06-38.47
		c0.05-6.92,9.25-16.91,15.85-16.93c48.71-0.15,97.42-0.2,146.13-0.25c1.16,0,2.32,0.3,3.22,0.43c0,33.66,0,66.92,0,100.8
		C838.37,495.24,784.01,495.24,728.47,495.24z"/>
</g>
<g id="Lote_17">
	<path class="st4" d="M748.17,590.88c-2.86,6.29-5.72,5.97-10.27,2.23c-7.06-5.79-10.05-12.28-9.73-21.77
		c0.78-23.4,0.26-46.84,0.26-70.81c54.85,0,109.17,0,164.04,0c0.23,2.47,0.57,4.3,0.54,6.13c-0.44,27.31-1.11,54.61-1.25,81.92
		c-0.03,6.27-2.31,7.51-8.05,7.48c-42.61-0.18-85.23-0.05-127.84-0.06C752.52,596,748.17,597.34,748.17,590.88z"/>
</g>
<g id="Lote19">
	<path class="st5" d="M904.21,121.92c29.79-1.6,58.28-3.14,87.66-4.72c-1.04,73.97-2.06,147.32-3.1,221.1c-29.2,0-57.64,0-86.94,0
		C902.63,266.27,903.41,194.56,904.21,121.92z"/>
</g>
<g id="Lote18">
	<path class="st5" d="M985.99,595.63c-30.24,0-59.68,0-89.65,0c1.67-67.02,3.33-133.58,5.01-200.77c28.63,0,57.32,0,87.18,0
		C987.68,461.62,986.84,528.4,985.99,595.63z"/>
</g>
<g id="Lote20">
	<path class="st2" d="M993.32,338.23c1.1-74.03,2.2-147.3,3.3-221.47c29.86-1.32,59.49-2.62,89.99-3.97
		c-0.76,75.51-1.52,150.25-2.28,225.43C1053.81,338.23,1024.12,338.23,993.32,338.23z"/>
</g>
<g id="Lote24">
	<path class="st6" d="M1185.52,239.08c0-43.49,0-86.46,0-129.73c2.9-0.41,4.73-0.83,6.58-0.91c19.85-0.87,39.72-1.5,59.56-2.62
		c8.17-0.46,15.47,2.18,20.02,8.05c2.75,3.54,2.43,10.02,2.29,15.14c-0.33,12.41-1.89,24.8-1.98,37.2
		c-0.14,20.08,0.5,40.16,0.79,60.24c0.06,4.06,0.01,8.11,0.01,12.63C1243.15,239.08,1214.41,239.08,1185.52,239.08z"/>
</g>
<g id="Lote25">
	<path d="M1181.56,427.56c7.92-4.28,15.28-8.05,22.44-12.18c16.71-9.64,23.32-26.09,24.43-43.53c0.94-14.8-1.8-29.73-15.76-40.54
		c-7.85-6.08-14.96-12.44-24.68-15.38c-1.78-0.54-3.94-3.63-3.96-5.57c-0.28-21.75-0.18-43.51-0.18-65.88c29.67,0,58.6,0,88.66,0
		c-0.83,74.17-1.67,148.51-2.51,223.32c-29.62,0-58.79,0-88.44,0C1181.56,453.56,1181.56,439.9,1181.56,427.56z"/>
</g>
<g id="Lote26">
	<path class="st7" d="M1177.54,595.97c1.26-41.45,2.49-82.1,3.72-122.91c29.5,0,58.64,0,88.64,0c0,3.41,0.03,5.98,0,8.55
		c-0.46,32.13-0.94,64.27-1.4,96.4c-0.12,8.44-9.23,17.7-17.93,17.91c-7.5,0.17-15.08-0.6-22.48,0.25
		c-6.59,0.75-12.56-2.7-19.6-0.63c-6.68,1.96-14.4,0.43-21.66,0.43C1184.23,595.97,1181.63,595.97,1177.54,595.97z"/>
</g>
<g id="Lote21">
	<path class="st1" d="M993.41,394.68c30.55,0,59.98,0,90.08,0c-0.96,67.25-1.91,133.87-2.87,201.09c-29.88,0-59.51,0-90.18,0
		C991.43,528.74,992.42,461.91,993.41,394.68z"/>
</g>
<g id="Lote23">
	<path d="M1177.06,311.7c-12.24,2.1-23.42,3.56-34.34,6.12c-4.52,1.06-9.16,3.78-12.56,6.99c-9.9,9.36-24.93,14.7-39.69,13.16
		c0-74.84,0-149.65,0-225.17c30.79-1.39,60.42-2.73,91.04-4.11C1180,177.28,1178.52,245,1177.06,311.7z"/>
</g>
<g id="Lote22">
	<path class="st4" d="M1174.28,594.92c-19.08,3.22-40.35,1.55-42.78-1.34c-15.99,1.21-30.63,2.31-46.22,3.49
		c1.03-68.46,2.03-135.26,3.03-202.14c6.74-1.77,12.06-0.79,17.48,3.15c10.98,7.98,21.99,16.18,33.91,22.56
		c7.1,3.8,15.9,4.56,24.04,6.2c3.43,0.69,7.12,0.11,10.54,0.11C1174.28,483.15,1174.28,538.87,1174.28,594.92z"/>
</g>
<g id="Lote_12">
	<path class="st8" d="M501.54,338.44c0-34.6,0-68.13,0-101.98c53.35,0,105.55,0,158.28,0c0.2,2.76,0.47,4.85,0.47,6.94
		c0.02,23.7,0.03,47.4-0.02,71.1c-0.03,12.46-11.53,23.92-23.89,23.92c-42.39,0-84.79,0-127.18,0.01
		C506.58,338.44,503.96,338.44,501.54,338.44z"/>
</g>
<g id="Lote11">
	<path d="M583.18,485c0,2.8,0,5.61,0,8.67c-3.33,0-6.41,0-9.48,0c-0.3-3.31-0.58-6.44-0.89-9.91c-6.22,5.97-12.04,10.8-21.22,10.49
		c-17.35-0.59-34.74-0.17-52.42-0.17c0-33.44,0-65.98,0-99.36c2.93-0.18,5.48-0.48,8.03-0.48c43.35-0.03,86.71-0.04,130.06-0.01
		c12.54,0.01,23.09,10.57,23.04,22.97c-0.1,22.97-0.19,45.94-0.32,68.91c-0.01,2.6-0.22,5.2-0.33,7.62c-24.9,0-49.23,0-74.46,0
		c-0.26-2.75-0.55-5.84-0.83-8.94C583.96,484.86,583.57,484.93,583.18,485z"/>
</g>
<g id="Lote10">
	<path class="st9" d="M498.34,596.11c0-32.93,0-64.74,0-96.85c54.17,0,107.34,0,161.39,0c0.16,3.11,0.39,5.65,0.4,8.19
		c0.08,22.24,0.13,44.48,0.18,66.71c0.03,12.27-10.03,22.44-22.5,22.41c-40.92-0.09-81.84-0.3-122.76-0.46
		C509.5,596.1,503.95,596.11,498.34,596.11z"/>
</g>
<g id="Lote_14">
	<path class="st1" d="M898.39,122.11c0,34.65,0.06,68.23-0.07,101.82c-0.02,4.01-1.18,7.26-6.75,7.21
		c-51.6-0.41-103.21-0.58-154.82-0.85c-0.94,0-1.89-0.25-3.64-0.49c-0.15-2.56-0.43-5.09-0.43-7.62
		c0.02-23.46,0.08-46.92,0.13-70.39c0.03-11.98,9.82-21.35,22-21.95c25.63-1.27,51.24-3.02,76.87-4.42
		C853.87,124.21,876.07,123.21,898.39,122.11z"/>
</g>
<g id="Lote7">
	<path class="st6" d="M403.84,148.5c-1.19,63.71-2.37,126.45-3.55,189.57c-29.02,0-57.24,0-86.05,0c-0.17-2.13-0.48-4.2-0.48-6.27
		c0.17-57.3,0.5-114.6,0.39-171.9c-0.01-7.11,2.18-8.82,8.98-8.95c22.27-0.43,44.52-1.61,66.78-2.43
		C394.45,148.36,398.99,148.5,403.84,148.5z"/>
</g>
<g id="Lote_6">
	<path class="st10" d="M312.45,394.59c30,0,58.95,0,88.72,0c-1.13,67.09-2.25,133.9-3.38,201.21c-29.59,0-58.29,0-88.03,0
		C310.66,528.87,311.55,462.27,312.45,394.59z"/>
</g>
<g id="Lote5">
	<path class="st11" d="M217.83,595.54c0-58.41,0-116.13,0-173.26c8.1-1.3,15.63-0.89,21.49-3.81c9.53-4.74,18.35-11.19,26.75-17.83
		c6.01-4.75,12.49-5.99,19.58-6.1c6.97-0.11,13.95-0.02,21.96-0.02c-0.78,67.38-1.55,134-2.33,201.02
		C275.57,595.54,246.58,595.54,217.83,595.54z"/>
</g>
<g id="Lote1">
	<path d="M211.91,595.94c-18.7,0-36.36-0.6-53.95,0.24c-9.64,0.46-16.42-2.21-22.42-9.7c-5.22-6.52-11.91-11.84-17.62-18
		c-1.61-1.74-2.92-4.54-2.94-6.86c-0.19-28.76-0.12-57.53-0.09-86.3c0-0.91,0.24-1.83,0.41-3.08c32.36,0,64.46,0,96.62,0
		C211.91,513.36,211.91,554.25,211.91,595.94z"/>
	<g>
		<circle class="st0" cx="166" cy="524" r="14.5"/>
		<path d="M166,510c7.72,0,14,6.28,14,14s-6.28,14-14,14s-14-6.28-14-14S158.28,510,166,510 M166,509c-8.28,0-15,6.72-15,15
			s6.72,15,15,15s15-6.72,15-15S174.28,509,166,509L166,509z"/>
	</g>
	<text transform="matrix(1 0 0 1 163 528)" class="st12 st13">1</text>
</g>
<g id="Lote2">
	<path class="st2" d="M115.24,289.16c33.6,0,66.46,0,99.18,0c0.41,0.67,0.84,1.05,0.86,1.46c0.85,14.02,1.04,15.45-12.42,17.24
		c-18.21,2.43-27.38,15.5-37.36,27.79c-2.79,3.44-3.34,8.97-4.17,13.67c-3.76,21.26-0.95,41.51,15.48,56.57
		c7.05,6.46,17.9,8.87,27.18,12.77c2.79,1.18,6.09,1.17,9.25,1.72c0,15.64,0,30.97,0,46.74c-33,0-65.3,0-97.99,0
		C115.24,407.74,115.24,348.85,115.24,289.16z"/>
</g>
<g id="Lote4">
	<path d="M309.09,338.9c-10.33,0-19.27,0.28-28.16-0.21c-2.05-0.11-4.82-2.46-5.78-4.48c-5.91-12.39-17.74-16.93-29.02-21.81
		c-8.1-3.51-16.85-5.52-25.12-8.14c0-49.16,0-98.63,0-148.95c29.89-1.21,58.86-2.38,88.07-3.57
		C309.09,213.95,309.09,275.73,309.09,338.9z"/>
</g>
<g id="Lote3">
	<path d="M216,155.57c0,43.27,0,85.53,0,128.43c-33.83,0-66.7,0-100.5,0c-0.11-2.26-0.33-4.8-0.33-7.35
		c-0.01-27.1,0.16-54.21-0.09-81.3c-0.05-5.38,1.63-9.12,5.6-12.54c7.66-6.61,14.95-13.66,22.58-20.3c1.89-1.65,4.47-3.36,6.82-3.51
		C172.04,157.66,194.02,156.67,216,155.57z"/>
</g>
</svg>
